<svg width="210" height="197" viewBox="0 0 210 197" fill="none" xmlns="http://www.w3.org/2000/svg">
<rect width="210" height="197" rx="40" fill="white"/>
<path d="M159.078 47.9448C157.301 46.1684 154.891 45.1705 152.378 45.1705C149.866 45.1705 147.456 46.1684 145.679 47.9448C144.324 49.2999 131.058 64.6505 124.297 73.2639C124.196 73.4003 124.066 73.5133 123.918 73.595C123.769 73.6768 123.604 73.7255 123.435 73.7377C123.268 73.7472 123.101 73.7218 122.944 73.663C122.787 73.6043 122.645 73.5136 122.525 73.3966L114.831 65.6786C113.942 64.7904 112.737 64.2915 111.481 64.2915C110.225 64.2915 109.02 64.7904 108.131 65.6786C107.243 66.5671 106.744 67.772 106.744 69.0283C106.744 70.2846 107.243 71.4895 108.131 72.378L113.154 77.4001C113.264 77.5097 113.351 77.64 113.411 77.7835C113.47 77.927 113.501 78.0809 113.501 78.2363C113.501 78.3917 113.47 78.5456 113.411 78.6891C113.351 78.8326 113.264 78.9629 113.154 79.0726L112.069 80.1575C111.624 80.6018 111.375 81.2042 111.375 81.8324C111.375 82.4605 111.624 83.063 112.069 83.5072L123.8 95.2429C124.244 95.687 124.846 95.9365 125.474 95.9365C126.103 95.9365 126.705 95.687 127.149 95.2429L128.234 94.1532C128.458 93.9327 128.759 93.8091 129.073 93.8091C129.387 93.8091 129.688 93.9327 129.911 94.1532L134.934 99.1753C135.827 100.038 137.024 100.516 138.266 100.505C139.508 100.494 140.697 99.996 141.575 99.1176C142.454 98.2392 142.952 97.0508 142.963 95.8086C142.973 94.5663 142.496 93.3695 141.633 92.476L133.664 84.5069C133.545 84.3882 133.453 84.2457 133.393 84.0887C133.334 83.9317 133.308 83.7639 133.319 83.5963C133.329 83.4288 133.375 83.2653 133.453 83.1168C133.531 82.9683 133.64 82.8381 133.773 82.7349C142.13 76.2156 157.036 63.3855 159.078 61.3435C160.854 59.5665 161.852 57.1568 161.852 54.6442C161.852 52.1315 160.854 49.7218 159.078 47.9448V47.9448Z" fill="#991B1B"/>
<path d="M78.1171 114.119C67.5965 124.103 59.4202 136.295 54.1767 149.818C54.0221 150.241 53.9914 150.7 54.0882 151.14C54.1849 151.58 54.405 151.983 54.7228 152.302C55.0406 152.622 55.4428 152.844 55.8823 152.942C56.3218 153.041 56.7804 153.013 57.2042 152.86C70.8216 147.756 83.1247 139.67 93.2119 129.194L98.6889 123.713C99.133 123.268 99.3825 122.666 99.3825 122.038C99.3825 121.41 99.133 120.807 98.6889 120.363L86.9437 108.642C86.4995 108.197 85.8971 107.948 85.2689 107.948C84.6407 107.948 84.0383 108.197 83.5941 108.642L78.1171 114.119Z" fill="#991B1B"/>
<path d="M132.171 113.687L97.1112 78.6272C96.8899 78.4052 96.7656 78.1045 96.7656 77.791C96.7656 77.4775 96.8899 77.1768 97.1112 76.9547L102.133 71.9326C102.597 71.4993 102.969 70.9772 103.228 70.3973C103.486 69.8174 103.625 69.1915 103.637 68.5568C103.648 67.9221 103.532 67.2915 103.295 66.7025C103.058 66.1135 102.706 65.5781 102.258 65.1281C101.81 64.6782 101.277 64.3227 100.689 64.083C100.101 63.8433 99.4709 63.7241 98.8362 63.7326C98.2014 63.7411 97.5749 63.877 96.9937 64.1324C96.4125 64.3877 95.8885 64.7573 95.4529 65.2191L68.6556 92.0211C68.2031 92.4582 67.8422 92.981 67.5938 93.559C67.3455 94.1371 67.2148 94.7588 67.2094 95.3878C67.2039 96.0169 67.3238 96.6408 67.562 97.2231C67.8002 97.8054 68.152 98.3343 68.5969 98.7792C69.0417 99.224 69.5707 99.5758 70.153 99.8141C70.7353 100.052 71.3591 100.172 71.9882 100.167C72.6173 100.161 73.239 100.031 73.8171 99.7822C74.3951 99.5339 74.9179 99.173 75.3549 98.7205L80.3771 93.6983C80.5991 93.477 80.8998 93.3527 81.2133 93.3527C81.5268 93.3527 81.8275 93.477 82.0495 93.6983L117.11 128.759C127.097 139.276 139.288 147.452 152.809 152.699C153.233 152.853 153.691 152.883 154.131 152.785C154.571 152.688 154.974 152.467 155.293 152.149C155.611 151.831 155.833 151.428 155.931 150.988C156.029 150.549 156 150.09 155.846 149.667C150.738 136.057 142.649 123.764 132.171 113.687V113.687Z" fill="#DC2626"/>
<path d="M75.0186 77.2817L80.4766 71.8189C80.8737 71.4205 81.116 70.8938 81.1603 70.333C81.2046 69.7722 81.0479 69.214 80.7182 68.7582C75.5918 61.6657 66.6231 50.0911 64.3205 47.7743C62.5431 45.9975 60.1326 44.9996 57.6195 45C55.1063 45.0004 52.6962 45.9992 50.9194 47.7766C49.1427 49.554 48.1447 51.9645 48.1452 54.4776C48.1456 56.9908 49.1444 59.4009 50.9218 61.1777C52.4474 62.7033 64.5574 72.0747 71.9437 77.5138C72.3995 77.8485 72.9601 78.0091 73.5241 77.9665C74.088 77.9239 74.6181 77.681 75.0186 77.2817V77.2817Z" fill="#DC2626"/>
</svg>
